<?xml version="1.0" encoding="utf-8"?>
<!-- Generator: Adobe Illustrator 26.0.1, SVG Export Plug-In . SVG Version: 6.00 Build 0)  -->
<svg version="1.1" id="Layer_1" xmlns="http://www.w3.org/2000/svg" xmlns:xlink="http://www.w3.org/1999/xlink" x="0px" y="0px"
	 viewBox="0 0 100 100" style="enable-background:new 0 0 100 100;" xml:space="preserve">
<style type="text/css">
	.st0{fill:#0D7E49;}
	.st1{fill:none;stroke:#0D7E49;stroke-width:0.15;stroke-miterlimit:10;}
</style>
<g>
	<path class="st0" d="M68.6,38.2c-0.2,0.2-0.3,0.4-0.5,0.6c-1.2,1-1.6,2.3-1.6,3.9c0,9.5,0,19,0,28.6c0,0.9-0.2,1.8-0.8,2.5
		c-0.6,0.8-1.3,1.6-2,2.3c-1.6,1.7-3.2,3.4-4.8,5.1c-6.4,6.7-14.2,9.1-23.1,6.5c-8.8-2.6-14-8.8-15.8-17.9c-0.2-0.9-0.2-1.9-0.3-2.8
		c0-0.2-0.2-0.5-0.4-0.7c-0.7-0.5-1-1.2-0.7-1.9c0.2-0.7,0.9-1.1,1.5-1.1c0.7,0,1.3,0.5,1.5,1.2c0.2,0.7-0.1,1.4-0.8,1.8
		c-0.4,0.2-0.4,0.4-0.4,0.8c0.3,10.2,8.4,19.2,18.5,20.6c5.9,0.8,11.2-0.4,16-3.9c2.1-1.5,3.8-3.4,5.4-5.5c0.5-0.7,0.7-1.4,0.7-2.3
		c0-5,0-10,0-15c0-4.3,0-8.7,0-13c0-1.7,0.6-3.2,1.8-4.5c1.7-1.7,3.3-3.3,5-5c0.2-0.2,0.4-0.3,0.6-0.4
		C68.4,38.1,68.5,38.1,68.6,38.2z"/>
	<path class="st0" d="M79.8,21c-0.1,0.2-0.2,0.4-0.4,0.6c-1.2,1.1-1.7,2.5-1.7,4.1c0,9.5,0,24.6,0,34.1c0,1.5-0.5,2.8-1.5,3.8
		c-1.8,1.8-3.6,3.7-5.5,5.5c-0.1,0.1-0.4,0.1-0.6,0.2c0.1-0.2,0.1-0.4,0.2-0.5c1.4-1.2,1.8-2.7,1.8-4.5c0-9.4,0-24.4,0-33.8
		c0-1.5,0.5-2.8,1.6-3.8c1.8-1.8,3.6-3.6,5.4-5.4c0.1-0.1,0.3-0.2,0.5-0.3C79.7,20.9,79.8,20.9,79.8,21z"/>
	<path class="st0" d="M46.5,84.1c-0.1-0.3-0.2-0.4-0.1-0.6c0.1-0.2,0.2-0.3,0.4-0.4c1.2-1.2,2.4-2.5,3.7-3.7c1.1-1,1.5-2.2,1.5-3.6
		c0-6.8,0-13.5,0-20.3c0-2,0.6-3.6,2.1-5c1.6-1.6,3.2-3.2,4.9-4.8c0.1-0.1,0.4-0.2,0.6-0.3c-0.1,0.2-0.1,0.5-0.3,0.6
		c-1.3,1.1-1.7,2.5-1.7,4.2c0,7,0,14,0,21c0,1.1-0.3,2-1,2.8c-0.6,0.7-1.1,1.3-1.7,1.9c-2.5,2.5-5.1,5.1-7.6,7.6
		C47,83.6,46.8,83.8,46.5,84.1z"/>
	<path class="st0" d="M37.7,84.1c-0.1-0.3-0.2-0.4-0.1-0.6c0.1-0.2,0.2-0.3,0.4-0.4c1.2-1.2,2.4-2.5,3.7-3.7c1.1-1,1.5-2.2,1.5-3.6
		c0-6.8,0-6.4,0-13.2c0-2,0.6-3.6,2.1-5c1.6-1.6,3.2-3.2,4.9-4.8c0.1-0.1,0.4-0.2,0.6-0.3c-0.1,0.2-0.1,0.5-0.3,0.6
		c-1.3,1.1-1.7,2.5-1.7,4.2c0,7,0,6.9,0,13.9c0,1.1-0.3,2-1,2.8c-0.6,0.7-1.1,1.3-1.7,1.9c-2.5,2.5-5.1,5.1-7.6,7.6
		C38.3,83.6,38.1,83.8,37.7,84.1z"/>
	<path class="st0" d="M85,16.5c0,1.2,0.1,2.3,0,3.5c0,0.4-0.4,0.9-0.7,1.2c-1,1-2,2-3,3c-0.2,0.3-0.4,0.6-0.5,1
		c2.5-0.7,5.3-0.6,7.1-3c0.4-0.5,0.7-1.1,1-1.7c0-0.1,0,0.1,0,0.2c0,0.5-0.1,1.1,0,1.6c0.2,1.5-0.6,2.5-1.6,3.5
		c-2.4,2.3-4.7,4.7-7.1,7.1c-0.3,0.3-0.4,0.9-0.5,1.3c-0.6-2.6,0.1-4.9,2.8-6.4c-0.1-0.1-0.1-0.1-0.2-0.2c-0.6,0.1-1.2,0.3-1.8,0.4
		c0-0.2-0.1-0.3-0.1-0.4c0-1.6,0-3.3,0-4.9c0-0.5,0.3-1.1,0.7-1.5c0.7-0.8,1.5-1.5,2.2-2.3C84,18.3,85,17.7,85,16.5z"/>
	<path class="st0" d="M41.7,58.7c-0.2,0.1-0.4,0.1-0.5,0.2c-1.9,1.9-3.8,3.8-5.7,5.7c-1.4,1.4-2.1,3.1-2.1,5.2c0,4.3,0,8.6,0,12.8
		c0,1.1-0.3,2.1-1.1,2.9c0,0,0,0,0,0c0,0,0,0,0,0c-0.6-1.2-1.6-3-2.2-4.1c-2.1-3.7-4.2-7.3-6.2-11c-1.2-2.2-1.9-2.7-1.9-5.3
		c0-4.6,0.1-52.3,0-56.9c0-2,0.4-3.6,2-4.9c0.1-0.1,0.2-0.4,0.2-0.6c-0.2,0.1-0.4,0.1-0.6,0.2c-2,2-4.1,4-6.1,6.1
		c-1.1,1.2-1.7,2.6-1.7,4.2c0,10.8,0,62.7,0,73.4c0,1.5-0.5,2.7-1.5,3.8c-0.2,0.2-0.4,0.4-0.6,0.7c-0.1,0.1,0,0.3,0,0.4
		c0.1,0,0.3,0,0.4,0c0.2-0.1,0.3-0.2,0.4-0.4c1.7-1.7,3.3-3.3,5-5c1.1-1.1,2.1-2.3,2.5-3.8c1.3,2.4,4.1,5.7,5.5,8.3
		c-0.1,0.1-0.1,0.1-0.2,0.2c-0.1,0.1-0.1,0.4-0.2,0.6c0.2,0,0.4,0,0.6-0.1c0.2-0.1,0.3-0.2,0.4-0.4c2.8-2.8,5.5-5.5,8.3-8.3
		c0.8-0.8,1.6-1.7,2.4-2.6c0.8-0.9,1.1-2,1.1-3.2c0-4.3,0-8.5,0-12.8c0-1.9,0.4-3.6,2-4.9c0.1-0.1,0.2-0.3,0.4-0.4
		C41.7,58.8,41.7,58.6,41.7,58.7z"/>
	<path class="st0" d="M16.1,92.4c1.7-1.7,3.4-3.4,5.1-5.1c1.7,1.7,3.4,3.4,5.1,5.1c-1.7,1.7-3.4,3.4-5.1,5.1
		C19.5,95.8,17.8,94.1,16.1,92.4z"/>
	<g>
		
			<rect x="54.2" y="35.9" transform="matrix(0.8049 -0.5934 0.5934 0.8049 -12.0283 41.725)" class="st0" width="6.5" height="6.5"/>
		<rect x="48" y="40.5" transform="matrix(0.8049 -0.5934 0.5934 0.8049 -15.9693 38.9235)" class="st0" width="6.5" height="6.5"/>
		
			<rect x="41.6" y="45.2" transform="matrix(0.8049 -0.5934 0.5934 0.8049 -19.9776 36.0742)" class="st0" width="6.5" height="6.5"/>
	</g>
	<g>
		<g>
			<path class="st0" d="M80.5,17.5c-0.2-0.1-0.4-0.2-0.6-0.2c-2.5-0.4-5-0.9-7.5-1.3c-1.5-0.2-2.8,0.1-4,1
				c-6.9,5-24.6,17.6-31.6,22.5c-0.2,0.2-0.5,0.3-0.7,0.4l-2.3,1.6c2.2,0.6,4.4,1.1,6.6,1.5c0.1,0,0.3,0.1,0.4,0.1c0,0,0.1,0,0.1,0
				c0.1,0,0.2,0.1,0.3,0c0.1,0,0.1,0,0.1-0.1c0.1-0.1,0.2-0.1,0.3-0.2c0.3-0.2,0.5-0.4,0.8-0.6c0.3-0.2,0.7-0.5,1-0.7
				c0.4-0.3,0.8-0.6,1.2-0.9c0.5-0.3,0.9-0.7,1.4-1c0.5-0.4,1-0.7,1.5-1.1c0.6-0.4,1.1-0.8,1.7-1.2c0.6-0.4,1.2-0.8,1.7-1.2
				c0.6-0.4,1.2-0.8,1.8-1.3c0.6-0.4,11.8-8.5,12.4-8.9c0.6-0.4,1.2-0.8,1.7-1.2c0.6-0.4,1.1-0.8,1.7-1.2c0.5-0.4,1-0.8,1.6-1.1
				c0.5-0.3,1-0.7,1.4-1c0.4-0.3,0.8-0.6,1.3-0.9c0.4-0.3,0.7-0.5,1.1-0.8c0.3-0.2,0.6-0.4,0.8-0.6c0.2-0.1,0.4-0.3,0.6-0.4
				c0,0,0.1,0,0.1-0.1c1.3-1,2.7-1.4,4.3-1c0.2,0.1,0.5,0,0.8,0C80.5,17.7,80.5,17.6,80.5,17.5z"/>
		</g>
		<g>
			<path class="st0" d="M35,40.7c-0.1,0-0.3,0-0.5,0c-5.6-1.1-9.7-5.6-10.6-10.9c-1.3-7.2,3.7-14,10.6-15.4c6.5-1.3,12.7,2.4,15,7.8
				c0.1,0.2,0.1,0.4,0,0.7c-0.2,0.4,0,1,0.4,1.2c0.4,0.2,1,0.1,1.2-0.4c0.3-0.4,0.1-1-0.3-1.3c-0.3-0.1-0.4-0.4-0.5-0.6
				c-0.7-1.8-1.8-3.3-3.1-4.6c-4.4-4.1-9.5-5.1-15.2-3.1c-1.6,0.6-3,1.4-4.2,2.5c-4.1,3.8-5.8,8.5-4.5,14c1,4.5,3.7,7.7,7.8,9.7
				c0.9,0.4,1.9,0.8,2.8,1.1L35,40.7z"/>
		</g>
	</g>
	<g>
		<g>
			<path class="st0" d="M55,20c0.3,0,0.5,0,0.8-0.2s0.4-0.4,0.4-0.7c0-0.3,0-0.5-0.2-0.8c-0.2-0.2-0.4-0.4-0.6-0.4
				c-0.3,0-0.5,0-0.7,0.2c-0.2,0.2-0.4,0.4-0.4,0.7c0,0.3,0,0.5,0.2,0.8C54.5,19.8,54.7,19.9,55,20z"/>
			<path class="st0" d="M59.2,10.9c0.2-0.2,0.4-0.4,0.4-0.7c0-0.3,0-0.6-0.2-0.8C59.2,9.1,59,9,58.7,8.9c-0.3,0-0.5,0-0.8,0.2
				c-0.2,0.2-0.4,0.4-0.4,0.7c-0.1,0.3,0,0.6,0.2,0.8c0.2,0.2,0.4,0.4,0.7,0.4C58.7,11.1,58.9,11.1,59.2,10.9z"/>
			<path class="st0" d="M62.9,7.6l0.2-0.1c0.2-0.1,0.3-0.2,0.5-0.2c0.1,0,0.3,0.1,0.4,0.2c0.1,0.1,0.3,0.3,0.6,0.7l3.3,4.6
				c0.3,0.4,0.5,0.7,0.5,0.8c0,0.1,0.1,0.3,0,0.4c0,0.1-0.2,0.2-0.4,0.4l-2.4,1.8c0.1-0.3,0.1-0.6,0.1-1.1c0-0.8-0.3-1.6-0.9-2.4
				c-0.7-1-1.6-1.5-2.5-1.7c-1-0.2-1.9,0-2.6,0.6c-0.6,0.5-1,1.1-1.1,1.9c-0.1,0.8,0.2,1.7,0.8,2.7l3.4-2.5c0.5,0.8,0.7,1.6,0.7,2.3
				c-0.1,0.9-0.5,1.8-1.3,2.7l-3.9,2.9c0,0,0-0.1,0.1-0.1c0.2-0.5,0.2-1,0.1-1.4c-0.1-0.4-0.5-0.9-1-1.7L55.8,16
				c-0.2-0.2-0.3-0.4-0.3-0.6c0-0.2,0-0.3,0-0.5c0.1-0.2,0.2-0.3,0.4-0.4l0.1-0.1l-0.1-0.2l-2.2,1.6l0.1,0.2
				c0.3-0.2,0.5-0.3,0.7-0.3c0.1,0,0.3,0,0.4,0.1s0.3,0.2,0.5,0.5l1.8,2.5c0.5,0.6,0.7,1.1,0.8,1.5c0.1,0.3,0,0.7-0.1,1
				c-0.1,0.3-0.4,0.6-0.7,0.9c-0.3,0.2-0.6,0.3-0.9,0.4c-0.3,0-0.5,0-0.7-0.1c-0.2-0.1-0.5-0.4-0.9-1l-2.2-3
				c-0.3-0.3-0.4-0.6-0.4-0.7c0-0.1,0-0.2,0-0.3c0.1-0.1,0.2-0.3,0.5-0.4l0.2-0.1l-0.1-0.2l-3.3,2.4l0.1,0.2
				c0.3-0.2,0.5-0.3,0.6-0.3c0.1,0,0.3,0,0.4,0c0.1,0.1,0.3,0.3,0.5,0.6l2.2,3c0.4,0.5,0.7,0.8,1.1,1c0.4,0.2,0.9,0.2,1.4,0.1
				c0.4-0.1,0.9-0.3,1.4-0.7c0.2-0.2,0.5-0.4,0.6-0.6l0,0l9.7-7.1l0,0l3.8-2.8L71,12.2c-0.3,0.2-0.5,0.4-0.7,0.4
				c-0.1,0-0.2-0.1-0.4-0.2c-0.1-0.1-0.3-0.3-0.6-0.7L66,7.2c-0.3-0.4-0.5-0.7-0.5-0.8c0-0.1,0-0.3,0-0.4c0-0.2,0.1-0.3,0.3-0.4
				L66,5.3l-0.2-0.2l-3.1,2.3L62.9,7.6z M60.7,14.5c-0.5-0.7-0.8-1.2-0.9-1.5c-0.1-0.3-0.1-0.6,0-0.8c0-0.1,0.1-0.3,0.3-0.4
				c0.2-0.2,0.5-0.2,0.8-0.1c0.5,0.2,1,0.6,1.5,1.2l0.2,0.2L60.7,14.5z"/>
			<path class="st0" d="M69.1,3.7c-0.1-0.2-0.1-0.3,0-0.4c0-0.2,0.1-0.3,0.3-0.4l0.2-0.1l-0.2-0.2l-3,2.2l0.2,0.2l0.2-0.1
				c0.2-0.1,0.3-0.2,0.5-0.2c0.2,0,0.3,0.1,0.4,0.1c0.1,0.1,0.3,0.3,0.6,0.8l3.3,4.6c0.3,0.4,0.5,0.7,0.5,0.8c0.1,0.2,0.1,0.3,0,0.4
				c0,0.2-0.1,0.3-0.3,0.4l-0.2,0.1l0.2,0.2l3-2.2l-0.2-0.2l-0.2,0.1C74.3,10,74.2,10,74,10c-0.2,0-0.3-0.1-0.4-0.1S73.3,9.5,73,9.1
				l-3.3-4.6C69.4,4.1,69.2,3.8,69.1,3.7z"/>
		</g>
	</g>
	<g>
		<polyline class="st1" points="14.6,92.4 11.1,92.4 11.1,10 14.3,10 		"/>
		<polyline class="st1" points="82.7,33.2 82.7,92.4 27.9,92.4 		"/>
		<polyline class="st1" points="76.7,10 82.7,10 82.7,16.7 		"/>
		<line class="st1" x1="23.7" y1="10" x2="55.7" y2="10"/>
	</g>
	<g>
		<g>
			<path class="st0" d="M56.1,88.3c0,0.1,0.1,0.3,0.1,0.4c0,0.1,0,0.3,0,0.4v0.1c-0.2,0.2-0.5,0.3-0.8,0.5c-0.2,0.1-0.4,0.1-0.6,0.1
				c-0.1,0-0.3,0-0.4,0c-0.2-0.1-0.3-0.2-0.3-0.4c0-0.1,0-0.1,0-0.2c0.1-0.3,0.2-0.6,0.3-0.8l0,0l0.5,0.3c0.1-0.1,0.1-0.2,0.2-0.4
				s0.1-0.2,0.2-0.4l-0.5-0.3l0,0l-0.1-0.1c-0.1,0.1-0.1,0.2-0.2,0.3c-0.1,0.1-0.1,0.2-0.2,0.3c-0.4,0.7-0.6,1.2-0.6,1.6
				c0,0,0,0.1,0,0.1c0,0.4,0.2,0.7,0.4,0.8c0.1,0.1,0.3,0.1,0.4,0.1c0.2,0,0.3,0,0.5-0.1c0.4-0.1,0.7-0.4,0.9-0.7
				c0.2-0.4,0.4-0.7,0.5-1.2c0-0.1,0-0.2,0-0.4c0-0.3-0.1-0.6-0.2-0.9L56.1,88.3z"/>
			<path class="st0" d="M57.7,86l-0.4,0.8l0.2,3.2l0.4-0.7c0-0.3-0.1-1.9-0.1-2.2C57.8,86.6,57.8,86.3,57.7,86z"/>
			<path class="st0" d="M63.2,89C63.2,89,63.2,89,63.2,89c-0.2,0.1-0.3,0.1-0.5,0.2c-0.1,0.1-0.3,0.1-0.5,0.1
				c-0.1-0.1-0.2-0.2-0.3-0.3c-0.1-0.1-0.1-0.3-0.2-0.4c0.2,0,0.5,0.1,0.7,0.1l0.3-0.8c-0.1,0-0.2,0-0.3-0.1c-0.1,0-0.2,0-0.3,0h0
				c-0.1,0-0.3,0.1-0.4,0.2c-0.1,0.1-0.2,0.3-0.3,0.5c-0.1,0.2-0.1,0.4-0.1,0.6c0,0,0,0,0,0c0,0.2,0,0.3,0.1,0.5
				c-0.1,0-0.3,0.1-0.5,0.1c-0.1,0-0.3,0-0.5,0.1l-0.1-2.6c0,0,0,0-0.1-0.1c0,0,0,0,0,0c0,0,0,0,0,0c-0.1,0.1-0.2,0.1-0.3,0.2
				c-0.1,0.1-0.2,0.2-0.2,0.3c-0.2,0.4-0.3,0.7-0.5,1c-0.1,0.3-0.4,0.5-0.7,0.7c-0.1,0.1-0.2,0.1-0.4,0.2c-0.1,0.1-0.3,0.1-0.4,0.2
				l-0.1,0.1l-1.4,0.6c-0.1,0.1-0.3,0.1-0.4,0.2c-0.2,0.1-0.3,0.1-0.4,0.2c0,0,0,0,0,0c0,0,0,0,0.1,0c0,0,0,0,0,0c0.1,0,0.2,0,0.2,0
				c0.4,0,0.7,0,1.1-0.1c0.4,0,0.7-0.1,1-0.2c0.5-0.2,0.9-0.5,1.3-0.9c0.2-0.3,0.4-0.5,0.4-0.8c0.1-0.3,0.2-0.5,0.4-0.8
				c0,0,0-0.1,0.1-0.1c0,0,0,0,0,0c0,0,0,0,0,0.1l0.1,2.3l-0.1,0.3c0,0,0.1,0,0.1,0l0,0.1l0.1-0.1c0.4-0.1,0.8-0.2,1.3-0.3
				c0.5-0.1,1-0.3,1.4-0.5c0,0,0-0.1,0.1-0.2c0-0.1,0.1-0.2,0.1-0.3C63.2,89.3,63.2,89.2,63.2,89C63.2,89.1,63.3,89,63.2,89
				C63.3,89,63.2,89,63.2,89z"/>
			<path class="st0" d="M65,90.3c0.1,0,0.1-0.1,0.1-0.1l0.1-0.3c-0.1,0-0.1,0.1-0.2,0.1c-0.1,0.1-0.2,0.2-0.4,0.4
				c-0.1,0.1-0.1,0.2-0.1,0.3c0,0.1,0,0.1,0.1,0.2c0,0,0.1,0,0.1,0.1c0,0,0.1,0,0.1,0.1c0,0,0,0,0,0c0,0,0,0,0,0.1
				c-0.1,0.1-0.2,0.1-0.3,0.1c-0.1,0-0.2,0.1-0.3,0.1c0.1,0,0.2,0,0.3-0.1c0.1,0,0.2-0.1,0.3-0.1c0.1-0.1,0.2-0.2,0.2-0.3
				c0,0,0-0.1,0-0.1c0-0.1,0-0.1-0.1-0.1c-0.1,0-0.1-0.1-0.2-0.1s-0.1,0-0.2-0.1C64.9,90.3,65,90.3,65,90.3z"/>
			<path class="st0" d="M64.1,86l-0.4,0.8l0.2,2.8l0.4-0.7c0-0.3-0.1-1.5-0.1-1.8C64.2,86.7,64.1,86.4,64.1,86z"/>
			<path class="st0" d="M65.8,86.8c-0.1,0.1-0.1,0.3-0.2,0.4c-0.1,0.1-0.1,0.3-0.2,0.4c0,0.2,0.1,0.4,0.1,0.6c0,0.2,0.1,0.4,0.1,0.6
				v0c0,0,0,0.1-0.1,0.1c-0.2,0.2-0.4,0.3-0.6,0.4c-0.2,0.1-0.5,0.2-0.7,0.3c0,0-0.1,0-0.1,0.1l-1.4,0.6c-0.1,0.1-0.3,0.1-0.4,0.2
				c-0.2,0.1-0.3,0.1-0.4,0.2c0,0,0,0,0,0c0,0,0,0,0.1,0c0,0,0,0,0,0c0.1,0,0.2,0,0.2,0c0.4,0,0.7,0,1.1-0.1s0.7-0.1,1-0.2
				c0.6-0.2,1-0.5,1.3-1s0.5-1,0.5-1.6c0-0.2-0.1-0.3-0.1-0.5C65.9,87.2,65.9,87,65.8,86.8z"/>
			<polygon class="st0" points="66.8,86 66.3,86.8 66.5,90.1 67,89.3 			"/>
			<path class="st0" d="M68.4,87.7C68.3,87.7,68.3,87.7,68.4,87.7c-0.1,0-0.1,0-0.2,0c-0.1,0.1-0.2,0.2-0.3,0.4s-0.1,0.3-0.2,0.4
				c0,0.1-0.1,0.1-0.1,0.2c0,0.1,0,0.1,0.1,0.2c0.1,0.1,0.1,0.1,0.3,0.1c0,0,0.1,0,0.1,0c0.1,0,0.2,0,0.2,0c0,0,0,0.1,0.1,0.1
				c0,0,0,0,0,0.1c0,0,0,0,0,0.1c-0.1,0.2-0.3,0.3-0.5,0.3c-0.4,0.2-0.7,0.3-1.1,0.4c-0.4,0.1-0.7,0.3-1.1,0.5c0,0,0,0,0,0.1
				c0,0,0,0,0,0c0.2,0,0.5,0,0.7,0.1c0,0,0.1,0,0.1,0c0.2,0,0.4,0,0.6-0.1c0.3-0.1,0.6-0.2,0.8-0.4c0.3-0.2,0.5-0.5,0.6-0.8
				s0.2-0.6,0.2-0.9v0c0-0.3-0.1-0.5-0.3-0.7C68.5,87.8,68.4,87.7,68.4,87.7z"/>
			<path class="st0" d="M71.9,86.8l0.4-0.8c-0.4,0.1-0.8,0.2-1.2,0.2L70.6,87c0.2,0,0.4-0.1,0.6-0.1C71.5,86.8,71.7,86.8,71.9,86.8z
				"/>
			<path class="st0" d="M71.9,90.3c0.2,0,0.5-0.1,0.6-0.1c0.2-0.1,0.3-0.1,0.5-0.3c0.2-0.1,0.3-0.3,0.4-0.5c0.1-0.2,0.2-0.5,0.2-0.8
				c0-0.3,0-0.6-0.2-0.9L73,88.5c0.1,0.4,0.2,0.6,0.2,0.7c-0.1,0.1-0.3,0.1-0.4,0.2c-0.1,0-0.2,0.1-0.4,0.1l0,0l-0.1-1.7
				c0-0.3-0.1-0.5-0.2-0.5c0,0-0.1,0-0.1,0c-0.1,0-0.3,0.1-0.4,0.2c-0.1,0.1-0.1,0.2-0.3,0.3c-0.1,0.2-0.2,0.4-0.3,0.5
				c-0.1,0.2-0.2,0.4-0.2,0.6c0,0.1,0,0.1,0,0.2c0,0.1,0,0.2,0.1,0.2c0.1,0.1,0.3,0.2,0.4,0.2c0.1,0,0.1,0,0.2,0
				c0.2-0.1,0.4-0.2,0.5-0.3L71.9,90.3L71.9,90.3C71.9,90.3,71.9,90.3,71.9,90.3L71.9,90.3L71.9,90.3z M71.7,88.6
				c-0.1,0-0.1,0-0.2,0c-0.1,0-0.1,0-0.2,0c-0.1,0-0.2-0.1-0.3-0.2c0,0,0-0.1,0-0.1c0,0,0-0.1,0-0.1c0.1-0.1,0.1-0.1,0.2-0.2
				c0.1,0,0.1-0.1,0.2-0.1c0,0,0.1,0,0.1,0c0.1,0,0.1,0.1,0.2,0.3c0,0.1,0,0.2,0,0.2C71.7,88.5,71.7,88.6,71.7,88.6z"/>
			<path class="st0" d="M71.8,91.3c0.2,0,0.4-0.1,0.6-0.1c0.2,0,0.4-0.1,0.6-0.1l0.4-0.8c-0.4,0.1-0.8,0.2-1.2,0.2L71.8,91.3z"/>
			<path class="st0" d="M77.2,88.3C77.2,88.3,77.2,88.3,77.2,88.3c-0.2,0.1-0.3,0.1-0.5,0.2c-0.1,0.1-0.3,0.1-0.5,0.1
				c-0.1-0.1-0.2-0.2-0.3-0.3s-0.1-0.3-0.2-0.4c0.2,0,0.5,0.1,0.7,0.1l0.3-0.8c-0.1,0-0.2,0-0.3-0.1c-0.1,0-0.2,0-0.3,0h0
				c-0.1,0-0.3,0.1-0.4,0.2c-0.1,0.1-0.2,0.3-0.3,0.5c-0.1,0.2-0.1,0.4-0.1,0.6c0,0,0,0,0,0c0,0.2,0,0.3,0.1,0.5
				c-0.1,0-0.3,0.1-0.5,0.1c-0.2,0-0.3,0.1-0.5,0.1l-0.2-3l-0.4,0.8l0.3,3.1c0.5-0.1,0.9-0.2,1.4-0.3c0.5-0.1,1-0.3,1.4-0.5
				c0,0,0-0.1,0.1-0.2c0-0.1,0.1-0.2,0.1-0.3C77.1,88.5,77.2,88.4,77.2,88.3C77.2,88.3,77.2,88.3,77.2,88.3
				C77.2,88.3,77.2,88.3,77.2,88.3z"/>
			<path class="st0" d="M81,88.3l-0.1-2.2l-0.5,0.8c0,0.5,0.1,1,0.1,1.3c0,0.3,0,0.7,0,1c-0.2,0.1-0.4,0.1-0.6,0.2
				c-0.1,0-0.3,0.1-0.5,0.1l-0.2-3l-0.5,0.8l0.1,2c-0.1,0.1-0.3,0.1-0.6,0.2c-0.2,0-0.3,0.1-0.4,0.1c-0.1,0-0.2,0-0.2,0
				c-0.1,0-0.2-0.1-0.2-0.2c0-0.1,0-0.1,0-0.2c0,0,0-0.1,0-0.1l0,0h0c0,0,0,0,0,0c-0.1,0.2-0.2,0.4-0.3,0.7c0,0,0,0.1,0,0.1
				c-0.1,0-0.1,0-0.2,0.1c-0.3,0.1-0.6,0.1-1,0.1c-0.3,0-0.7,0.1-1,0.1c0,0-0.1,0-0.1,0c0,0,0,0,0,0c0.1,0,0.2,0.1,0.5,0.2
				c0.3,0.1,0.4,0.2,0.5,0.2c0.2,0.1,0.3,0.1,0.5,0.1c0,0,0.1,0,0.1,0c0.2,0,0.3-0.1,0.5-0.4c0-0.1,0.1-0.2,0.2-0.2
				c0,0.1,0.1,0.1,0.2,0.2c0.1,0,0.2,0.1,0.3,0.1c0.2,0,0.4-0.1,0.6-0.2c0.3-0.2,0.6-0.4,0.7-0.6l0.1,0.7l0,0.1l0,0v0c0,0,0,0,0,0
				l0,0l0,0c0.6-0.1,1-0.3,1.1-0.3c0.4-0.2,0.7-0.6,0.8-1.1c0-0.1,0-0.2,0.1-0.3C81,88.5,81,88.4,81,88.3z"/>
		</g>
	</g>
</g>
</svg>
