<?xml version="1.0" encoding="utf-8"?>
<!-- Generator: Adobe Illustrator 24.3.0, SVG Export Plug-In . SVG Version: 6.00 Build 0)  -->
<svg version="1.1" id="Layer_1" xmlns="http://www.w3.org/2000/svg" xmlns:xlink="http://www.w3.org/1999/xlink" x="0px" y="0px"
	 viewBox="0 0 311.8 311.8" style="enable-background:new 0 0 311.8 311.8;" xml:space="preserve">
<style type="text/css">
	.st0{fill:#FFFFFF;}
	.st1{display:none;}
	.st2{display:inline;}
	.st3{fill:#0D7E49;}
	.st4{display:inline;fill:none;stroke:#0D7E49;stroke-width:0.5;stroke-miterlimit:10;}
</style>
<g>
	<path class="st0" d="M209.1,122.1c-0.4,0.6-0.8,1.2-1.3,1.7c-3.3,3-4.6,6.7-4.6,11.1c0.1,27.3,0,54.6,0.1,81.8
		c0,2.7-0.7,5.1-2.3,7.1c-1.9,2.3-3.8,4.5-5.8,6.6c-4.6,4.9-9.2,9.7-13.8,14.6c-18.4,19.2-40.7,26-66.1,18.5
		c-25.3-7.5-40.2-25.3-45.3-51.2c-0.5-2.6-0.5-5.3-0.9-8c-0.1-0.7-0.6-1.5-1.2-1.9c-1.9-1.4-2.7-3.3-2.1-5.4
		c0.6-1.9,2.4-3.2,4.4-3.1c2,0.1,3.7,1.4,4.3,3.4c0.5,2-0.2,4.1-2.2,5.1c-1.1,0.6-1.2,1.2-1.2,2.2c0.8,29.2,24.1,55.1,53,59.1
		c16.8,2.3,32.2-1.2,45.8-11.2c5.9-4.4,11-9.8,15.4-15.8c1.4-2,2-4.1,2-6.6c-0.1-14.3,0-28.7,0-43c0-12.4,0-24.8,0-37.2
		c0-5,1.8-9.3,5.3-12.8c4.8-4.8,9.6-9.6,14.4-14.4c0.5-0.5,1.1-0.8,1.6-1.2C208.6,121.8,208.9,121.9,209.1,122.1z"/>
	<path class="st0" d="M241.4,72.7c-0.4,0.5-0.6,1.2-1.1,1.6c-3.6,3.1-4.9,7.1-4.9,11.8c0.1,27.2,0,70.5,0.1,97.7
		c0,4.3-1.4,7.9-4.3,10.9c-5.1,5.3-10.4,10.5-15.6,15.6c-0.4,0.4-1.1,0.4-1.6,0.6c0.2-0.5,0.3-1.2,0.6-1.5c4-3.4,5.1-7.8,5.1-12.9
		c-0.1-26.9,0-69.9-0.1-96.9c0-4.4,1.6-8,4.5-11c5-5.2,10.2-10.3,15.3-15.4c0.4-0.4,1-0.7,1.4-1C241.1,72.4,241.2,72.6,241.4,72.7z"
		/>
	<path class="st0" d="M145.8,253.5c-0.2-0.8-0.5-1.3-0.4-1.6c0.2-0.5,0.7-0.8,1-1.2c3.5-3.5,6.9-7.1,10.5-10.5
		c3-2.9,4.3-6.2,4.3-10.4c-0.1-19.4,0-38.7,0-58.1c0-5.7,1.9-10.4,5.9-14.4c4.7-4.6,9.3-9.3,14-13.9c0.4-0.4,1.1-0.5,1.6-0.8
		c-0.2,0.6-0.3,1.4-0.7,1.8c-3.6,3.2-4.9,7.2-4.9,12c0.1,20,0,40.1,0.1,60.1c0,3-0.8,5.7-2.7,8c-1.6,1.9-3.2,3.8-4.9,5.6
		c-7.2,7.3-14.5,14.5-21.7,21.8C147.3,252.3,146.7,252.7,145.8,253.5z"/>
	<path class="st0" d="M120.8,253.5c-0.2-0.8-0.5-1.3-0.4-1.6c0.2-0.5,0.7-0.8,1-1.2c3.5-3.5,6.9-7.1,10.5-10.5
		c3-2.9,4.3-6.2,4.3-10.4c-0.1-19.4,0-18.4,0-37.7c0-5.7,1.9-10.4,5.9-14.4c4.7-4.6,9.3-9.3,14-13.9c0.4-0.4,1.1-0.5,1.6-0.8
		c-0.2,0.6-0.3,1.4-0.7,1.8c-3.6,3.2-4.9,7.2-4.9,12c0.1,20,0,19.7,0.1,39.7c0,3-0.8,5.7-2.7,8c-1.6,1.9-3.2,3.8-4.9,5.6
		c-7.2,7.3-14.5,14.5-21.7,21.8C122.3,252.3,121.7,252.7,120.8,253.5z"/>
	<path class="st0" d="M256,59.8c0,3.3,0.2,6.7-0.1,9.9c-0.1,1.2-1.1,2.6-2.1,3.6c-2.7,2.9-5.7,5.7-8.4,8.6c-0.7,0.7-1.1,1.7-1.5,2.8
		c7.2-2,15.3-1.8,20.4-8.5c1.1-1.5,2-3.3,2.8-4.7c0-0.2,0.1,0.2,0.1,0.5c0,1.5-0.2,3.1,0,4.6c0.5,4.3-1.6,7.2-4.6,10.1
		c-6.9,6.6-13.6,13.5-20.2,20.3c-0.9,0.9-1.1,2.6-1.5,3.7c-1.7-7.6,0.4-14,7.9-18.3c-0.2-0.2-0.3-0.3-0.5-0.5
		c-1.7,0.4-3.3,0.7-5.1,1.1c-0.1-0.5-0.3-0.8-0.3-1.1c0-4.7-0.1-9.4,0.1-14.1c0.1-1.5,0.9-3.2,1.9-4.4c1.9-2.3,4.2-4.3,6.3-6.4
		C253.5,65,256.2,63.3,256,59.8z"/>
	<path class="st0" d="M132,180.7c-0.5,0.2-1.1,0.3-1.5,0.7c-5.5,5.4-10.9,10.9-16.4,16.3c-4.1,4.1-6.1,9-6.1,14.8
		c0,12.2,0,24.5,0,36.8c0,3.2-0.9,6.1-3.2,8.4c0,0-0.1,0.1-0.1,0.1c0,0,0-0.1-0.1-0.1c-1.7-3.3-4.6-8.5-6.4-11.8
		c-6-10.5-12.1-20.9-17.9-31.4c-3.5-6.4-5.4-7.8-5.4-15.2c0.1-13.3,0.2-149.9,0-163.1c-0.1-5.7,1.3-10.4,5.7-14.2
		c0.4-0.4,0.4-1.2,0.6-1.8c-0.6,0.2-1.3,0.3-1.7,0.7c-5.9,5.8-11.8,11.6-17.5,17.5c-3.2,3.3-4.9,7.3-4.8,12.1
		c0.1,30.8,0,179.6,0.1,210.4c0,4.2-1.3,7.9-4.4,10.8c-0.6,0.6-1.3,1.2-1.8,1.9c-0.2,0.2-0.1,0.7-0.1,1.1c0.4,0,0.8,0.1,1.1,0
		c0.5-0.3,0.8-0.7,1.2-1.1c4.7-4.7,9.4-9.5,14.2-14.2c3.2-3.1,6.1-6.5,7.2-10.8c3.8,6.9,11.6,16.3,15.7,23.7
		c-0.2,0.2-0.4,0.4-0.6,0.6c-0.4,0.4-0.4,1.1-0.5,1.7c0.6-0.1,1.3,0,1.8-0.2c0.5-0.2,0.8-0.7,1.2-1.1c7.9-7.9,15.8-15.8,23.7-23.7
		c2.3-2.4,4.6-4.9,6.7-7.4c2.2-2.6,3.2-5.6,3.1-9.1c-0.1-12.2,0.1-24.4-0.1-36.6c-0.1-5.6,1.3-10.3,5.6-14c0.4-0.3,0.7-0.8,1.1-1.2
		C132.3,181.1,132.1,180.7,132,180.7z"/>
	<path class="st0" d="M58.7,277.3c4.8-4.8,9.8-9.8,14.7-14.6c4.9,4.9,9.8,9.8,14.6,14.7c-4.9,4.9-9.8,9.8-14.7,14.6
		C68.6,287.2,63.6,282.3,58.7,277.3z"/>
	<g>
		<g>
			
				<rect x="167.9" y="115.5" transform="matrix(0.8049 -0.5934 0.5934 0.8049 -39.4958 129.5273)" class="st0" width="18.6" height="18.6"/>
			
				<rect x="150.1" y="128.7" transform="matrix(0.8049 -0.5934 0.5934 0.8049 -50.7864 121.5029)" class="st0" width="18.6" height="18.6"/>
			
				<rect x="131.9" y="142.1" transform="matrix(0.8049 -0.5934 0.5934 0.8049 -62.2744 113.3422)" class="st0" width="18.6" height="18.6"/>
		</g>
	</g>
	<g>
		<g>
			<g>
				<path class="st0" d="M243.4,62.7c-0.6-0.2-1.2-0.5-1.8-0.6c-7.2-1.2-14.4-2.5-21.6-3.6c-4.2-0.6-8,0.2-11.6,2.8
					c-19.9,14.3-70.5,50.3-90.4,64.6c-0.7,0.5-1.3,0.8-2,1.1l-6.5,4.6c6.2,1.8,12.5,3.2,18.9,4.4c0.4,0.1,0.8,0.2,1.2,0.2
					c0.1,0,0.3,0.1,0.4,0.1c0.3,0.1,0.6,0.1,0.9,0.1c0.2,0,0.3-0.1,0.4-0.2c0.3-0.2,0.5-0.4,0.8-0.6c0.7-0.5,1.5-1.1,2.2-1.6
					c1-0.7,1.9-1.4,2.9-2.1c1.2-0.8,2.4-1.7,3.5-2.5c1.3-1,2.7-1.9,4-2.9c1.5-1.1,3-2.1,4.4-3.2c1.6-1.1,3.2-2.3,4.8-3.4
					c1.6-1.2,3.3-2.4,4.9-3.6c1.7-1.2,3.4-2.4,5.1-3.6c1.7-1.2,33.9-24.2,35.6-25.4c1.7-1.2,3.3-2.4,5-3.6c1.6-1.2,3.2-2.3,4.8-3.4
					c1.5-1.1,3-2.2,4.5-3.2c1.4-1,2.8-2,4.1-3c1.2-0.9,2.4-1.7,3.6-2.6c1-0.7,2-1.5,3.1-2.2c0.8-0.6,1.6-1.1,2.4-1.7
					c0.5-0.4,1.1-0.8,1.6-1.2c0.1-0.1,0.2-0.1,0.2-0.2c3.8-2.8,7.7-4,12.2-2.9c0.7,0.2,1.4,0,2.2,0C243.3,63.3,243.3,63,243.4,62.7z
					"/>
			</g>
			<g>
				<path class="st0" d="M112.8,129.2c-0.4,0.1-0.9,0.1-1.4-0.1c-16.2-3.2-27.7-16-30.4-31.2c-3.7-20.6,10.5-40.2,30.3-44.2
					c18.6-3.7,36.3,6.8,42.8,22.5c0.3,0.7,0.4,1.2,0,1.9c-0.7,1.3-0.1,2.9,1.2,3.5c1.3,0.6,2.8,0.2,3.5-1.1c0.8-1.2,0.4-2.9-0.9-3.6
					c-0.8-0.4-1.2-1-1.5-1.8c-2.1-5-5-9.4-9-13.1c-12.6-11.7-27.2-14.6-43.4-8.9c-4.5,1.6-8.6,4-12.1,7.3
					c-11.8,10.9-16.6,24.3-13,40.1c2.9,12.8,10.5,22.2,22.3,27.9c2.6,1.3,5.3,2.2,8.1,3.1L112.8,129.2z"/>
			</g>
		</g>
	</g>
	<g class="st1">
		<g class="st2">
			<path class="st3" d="M170.2,69.8c0.8,0.1,1.5,0,2.2-0.5c0.6-0.5,1-1.1,1.1-1.9c0.1-0.8-0.1-1.5-0.6-2.2c-0.5-0.7-1.1-1-1.9-1.2
				c-0.8-0.1-1.5,0-2.1,0.5c-0.6,0.5-1.1,1.1-1.2,1.9c-0.1,0.8,0,1.6,0.5,2.2C168.8,69.3,169.4,69.7,170.2,69.8z"/>
			<path class="st3" d="M182.2,43.8c0.7-0.5,1.1-1.2,1.2-2c0.1-0.8-0.1-1.6-0.6-2.4c-0.5-0.7-1.2-1.1-2-1.3c-0.8-0.1-1.6,0-2.2,0.5
				c-0.7,0.5-1.1,1.2-1.3,2.1s0,1.7,0.5,2.3s1.2,1.1,2,1.2C180.7,44.5,181.5,44.3,182.2,43.8z"/>
			<path class="st3" d="M192.9,34.4l0.6-0.4c0.5-0.4,1-0.5,1.4-0.5c0.4,0,0.7,0.2,1.1,0.5c0.3,0.2,0.9,0.9,1.8,2.1l9.5,13
				c0.9,1.2,1.4,2,1.6,2.4c0.1,0.4,0.1,0.7,0,1c-0.1,0.3-0.5,0.7-1.1,1.1l-7,5.1c0.2-0.8,0.2-1.8,0.2-3.1c0-2.3-0.9-4.6-2.5-6.9
				c-2-2.8-4.4-4.4-7.3-4.9c-2.8-0.5-5.3,0.1-7.5,1.7c-1.8,1.3-2.9,3.2-3.2,5.5s0.4,4.9,2.3,7.7l9.9-7.2c1.5,2.3,2.1,4.5,1.9,6.6
				c-0.3,2.5-1.5,5-3.6,7.7l-11.3,8.2c0.1-0.1,0.1-0.2,0.2-0.4c0.5-1.6,0.6-2.9,0.2-4c-0.4-1.1-1.3-2.7-2.8-4.7l-4.8-6.6
				c-0.5-0.7-0.8-1.2-0.9-1.6c-0.1-0.5-0.1-1,0.1-1.4c0.2-0.5,0.6-0.9,1.1-1.2l0.4-0.3l-0.4-0.5l-6.3,4.6l0.4,0.5
				c0.7-0.5,1.4-0.9,1.9-1c0.4,0,0.7,0,1.1,0.2c0.4,0.2,0.9,0.7,1.5,1.5l5.2,7.1c1.4,1.8,2.1,3.3,2.3,4.3c0.2,1,0.1,2-0.3,2.9
				c-0.4,0.9-1.1,1.8-2.1,2.5c-0.9,0.6-1.7,1-2.5,1.1c-0.8,0.1-1.5-0.1-2.1-0.4c-0.6-0.3-1.5-1.3-2.6-2.8l-6.2-8.5
				c-0.7-1-1.1-1.7-1.2-2c-0.1-0.3,0-0.7,0.1-1s0.6-0.8,1.3-1.3l0.5-0.3l-0.4-0.5l-9.4,6.9l0.4,0.5c0.8-0.6,1.4-0.9,1.7-1
				s0.7,0,1,0.1c0.3,0.2,0.8,0.7,1.6,1.8l6.2,8.5c1.1,1.4,2.1,2.4,3.2,2.9s2.4,0.6,4,0.3c1.2-0.2,2.5-0.9,4.1-2.1
				c0.7-0.5,1.3-1.1,1.8-1.6l0.1,0.1L206,56.5l0,0l10.8-7.9l-0.6-0.9c-0.9,0.7-1.6,1.1-1.9,1.1c-0.3,0-0.7-0.2-1.1-0.5
				c-0.3-0.2-0.9-0.9-1.8-2.1l-9.5-13c-0.9-1.2-1.4-2-1.6-2.4s-0.1-0.8,0-1.2c0.1-0.4,0.4-0.8,0.9-1.2l0.6-0.4l-0.5-0.7l-8.9,6.5
				L192.9,34.4z M186.7,54.3c-1.4-1.9-2.2-3.3-2.5-4.2c-0.3-0.9-0.3-1.7-0.1-2.4c0.1-0.4,0.4-0.8,0.9-1.1c0.7-0.5,1.4-0.6,2.3-0.3
				c1.5,0.5,3,1.7,4.3,3.5l0.5,0.6L186.7,54.3z"/>
			<path class="st3" d="M210.8,23.3c-0.2-0.5-0.2-0.9-0.1-1.2c0.1-0.5,0.4-0.9,0.9-1.2l0.5-0.4l-0.5-0.7l-8.6,6.3l0.5,0.7l0.5-0.4
				c0.5-0.3,0.9-0.5,1.4-0.5s0.8,0.2,1.1,0.4c0.3,0.2,0.9,1,1.8,2.2l9.5,13c0.9,1.2,1.4,2,1.5,2.3c0.2,0.5,0.2,0.9,0.1,1.2
				c-0.1,0.5-0.4,0.9-0.9,1.2l-0.5,0.4l0.5,0.7l8.6-6.3l-0.5-0.7l-0.5,0.4c-0.5,0.3-0.9,0.5-1.4,0.5c-0.4,0-0.8-0.2-1.1-0.4
				s-0.9-1-1.8-2.2l-9.5-13C211.4,24.4,210.9,23.7,210.8,23.3z"/>
		</g>
	</g>
	<g class="st1">
		<polyline class="st4" points="54.5,277.3 44.4,277.3 44.4,41.3 53.7,41.3 		"/>
		<polyline class="st4" points="249.5,107.7 249.5,277.3 92.5,277.3 		"/>
		<polyline class="st4" points="232.5,41.3 249.5,41.3 249.5,60.4 		"/>
		<line class="st4" x1="80.6" y1="41.3" x2="172.2" y2="41.3"/>
	</g>
	<g class="st1">
		<g class="st2">
			<path class="st3" d="M173.4,265.5c0.1,0.4,0.2,0.8,0.3,1.3c0.1,0.4,0.1,0.8,0.1,1.3v0.2c-0.6,0.5-1.3,1-2.2,1.3
				c-0.6,0.2-1.2,0.3-1.8,0.3c-0.4,0-0.8,0-1.1-0.1c-0.6-0.3-1-0.7-1-1.2c0-0.2,0-0.4,0.1-0.6c0.3-0.8,0.6-1.6,1-2.3l0.1-0.1
				l1.4,0.9c0.2-0.4,0.4-0.7,0.6-1c0.2-0.4,0.4-0.7,0.6-1.1l-1.5-1l0,0l-0.3-0.1c-0.2,0.3-0.3,0.6-0.5,0.9s-0.3,0.6-0.5,0.9
				c-1.1,2-1.6,3.6-1.6,4.7c0,0.1,0,0.2,0,0.3c0.1,1.2,0.5,2,1.3,2.3c0.4,0.2,0.8,0.3,1.2,0.3c0.4,0,0.9-0.1,1.5-0.3
				c1-0.4,1.9-1.1,2.6-2c0.7-1,1.1-2.1,1.4-3.4c0.1-0.4,0.1-0.7,0.1-1.1c0-0.9-0.2-1.7-0.6-2.5L173.4,265.5z"/>
			<path class="st3" d="M178.1,258.9l-1.2,2.2l0.6,9.1l1.2-2.1c-0.1-1-0.2-5.5-0.3-6.4C178.3,260.8,178.2,259.9,178.1,258.9z"/>
			<path class="st3" d="M193.8,267.6C193.8,267.6,193.8,267.6,193.8,267.6c-0.5,0.2-0.9,0.4-1.3,0.6c-0.4,0.2-0.9,0.3-1.5,0.3
				c-0.3-0.2-0.6-0.5-0.8-0.9c-0.2-0.3-0.4-0.7-0.4-1.2c0.7,0.1,1.3,0.2,1.9,0.4l0.8-2.4c-0.3-0.1-0.6-0.1-0.9-0.2
				c-0.3-0.1-0.6-0.1-0.9-0.1h0c-0.4,0-0.8,0.2-1.1,0.6c-0.3,0.4-0.6,0.9-0.8,1.5s-0.3,1.1-0.3,1.7c0,0,0,0.1,0,0.1
				c0,0.5,0.1,1,0.3,1.3c-0.4,0.1-0.9,0.2-1.5,0.3c-0.4,0.1-0.8,0.1-1.4,0.2l-0.3-7.6c0-0.1-0.1-0.1-0.1-0.1c-0.1,0-0.1,0-0.1,0
				c-0.1,0-0.1,0-0.1,0c-0.3,0.2-0.6,0.4-0.9,0.7s-0.5,0.6-0.6,0.9c-0.5,1.1-1,2-1.3,2.7c-0.4,0.8-1.1,1.4-2,2
				c-0.4,0.2-0.7,0.4-1.1,0.6c-0.4,0.2-0.8,0.4-1.1,0.5l-0.4,0.2l-4,1.7c-0.4,0.2-0.8,0.3-1.3,0.5c-0.4,0.2-0.9,0.3-1.2,0.5
				c-0.1,0-0.1,0.1-0.1,0.1c0,0,0.1,0.1,0.2,0.1c0,0,0.1,0,0.1,0c0.3,0,0.5,0,0.6,0c1.1,0,2.1-0.1,3.2-0.1s2-0.3,2.8-0.6
				c1.4-0.5,2.7-1.4,3.6-2.6c0.6-0.7,1-1.5,1.3-2.2s0.6-1.5,1.1-2.3c0.1-0.1,0.1-0.2,0.2-0.2c0,0,0.1,0,0.1,0
				c0.1,0.1,0.1,0.1,0.1,0.2l0.3,6.7l-0.2,1c0.1,0,0.1,0,0.2,0l0,0.2l0.2-0.3c1.2-0.2,2.4-0.5,3.7-0.8c1.4-0.3,2.8-0.9,4.1-1.6
				c0,0,0.1-0.2,0.2-0.4s0.2-0.5,0.4-0.8s0.2-0.5,0.3-0.7C193.8,267.8,193.8,267.8,193.8,267.6C193.9,267.7,193.9,267.6,193.8,267.6
				z"/>
			<path class="st3" d="M198.9,271.3c0.2-0.1,0.3-0.2,0.4-0.4l0.4-0.8c-0.2,0.1-0.4,0.2-0.5,0.3c-0.2,0.2-0.6,0.6-1.1,1.3
				c-0.3,0.3-0.4,0.6-0.4,0.9c0,0.2,0.1,0.4,0.3,0.5c0.1,0.1,0.2,0.1,0.4,0.2s0.2,0.1,0.4,0.2c0,0,0,0,0,0c0,0,0,0.1-0.1,0.1
				c-0.3,0.1-0.6,0.3-0.9,0.4c-0.3,0.1-0.6,0.2-0.9,0.4c0.3,0,0.7-0.1,1-0.1c0.3,0,0.6-0.2,0.9-0.4c0.3-0.2,0.6-0.5,0.7-0.9
				c0.1-0.1,0.1-0.2,0.1-0.3c0-0.2-0.1-0.3-0.2-0.4c-0.1-0.1-0.3-0.2-0.5-0.2s-0.3-0.1-0.4-0.3C198.6,271.5,198.8,271.4,198.9,271.3
				z"/>
			<path class="st3" d="M196.3,259.2l-1.2,2.2l0.6,7.9l1.2-2.1c-0.1-1-0.2-4.3-0.3-5.2C196.5,261.1,196.4,260.1,196.3,259.2z"/>
			<path class="st3" d="M201.3,261.5c-0.2,0.4-0.3,0.8-0.5,1.1s-0.4,0.7-0.5,1.1c0.1,0.5,0.2,1.1,0.3,1.6s0.1,1.1,0.2,1.6v0
				c0,0.1-0.1,0.2-0.3,0.3c-0.5,0.5-1.1,0.9-1.8,1.2c-0.7,0.3-1.3,0.7-2,1c-0.1,0-0.2,0.1-0.4,0.2l-4,1.7c-0.4,0.2-0.8,0.3-1.3,0.5
				c-0.4,0.2-0.9,0.3-1.2,0.5c-0.1,0-0.1,0.1-0.1,0.1c0,0,0.1,0.1,0.2,0.1c0,0,0.1,0,0.1,0c0.3,0,0.5,0,0.6,0c1.1,0,2.1-0.1,3.2-0.1
				s2-0.3,2.8-0.6c1.6-0.6,2.9-1.6,3.9-2.9s1.5-2.8,1.5-4.6c-0.1-0.5-0.1-1-0.2-1.5C201.5,262.4,201.4,261.9,201.3,261.5z"/>
			<polygon class="st3" points="204,259.1 202.6,261.2 203.2,270.7 204.5,268.5 			"/>
			<path class="st3" d="M208.5,263.9c-0.1,0-0.1,0-0.2,0c-0.1,0-0.2,0-0.3,0.2c-0.3,0.3-0.5,0.7-0.7,1.1c-0.2,0.4-0.4,0.8-0.6,1.2
				c-0.1,0.2-0.2,0.4-0.2,0.6c0,0.2,0.1,0.4,0.2,0.5c0.2,0.2,0.4,0.3,0.8,0.3c0.1,0,0.2,0,0.3,0c0.2,0,0.5,0,0.7-0.1
				c0.1,0.1,0.1,0.2,0.1,0.4c0,0.1,0,0.1,0,0.2c0,0.1,0,0.1-0.1,0.2c-0.4,0.4-0.9,0.8-1.4,1c-1.1,0.4-2.1,0.9-3.2,1.3
				s-2.1,0.9-3.1,1.4c-0.1,0-0.1,0.1-0.1,0.1c0,0.1,0,0.1,0.1,0.1c0.7,0.1,1.4,0.1,2.1,0.1c0.1,0,0.2,0,0.4,0c0.6,0,1.1,0,1.7-0.1
				c0.8-0.2,1.6-0.6,2.4-1.2s1.3-1.4,1.8-2.2c0.4-0.8,0.7-1.7,0.7-2.6v-0.1c0-0.8-0.3-1.5-0.9-2.1
				C208.9,264.1,208.8,264,208.5,263.9z"/>
			<path class="st3" d="M218.6,261.2l1.1-2.2c-1.1,0.2-2.3,0.4-3.6,0.7l-1.1,2.2c0.6-0.1,1.2-0.2,1.8-0.3
				C217.4,261.5,218,261.4,218.6,261.2z"/>
			<path class="st3" d="M218.7,271.5c0.7-0.1,1.3-0.2,1.8-0.3c0.5-0.1,1-0.4,1.4-0.8c0.4-0.4,0.9-0.9,1.2-1.5s0.6-1.3,0.6-2.2
				c0-0.8-0.1-1.7-0.4-2.5l-1.4,2.1c0.3,1.1,0.5,1.8,0.5,2c-0.3,0.2-0.7,0.4-1.2,0.5c-0.3,0.1-0.7,0.1-1.2,0.2l0.1-0.1l-0.3-4.9
				c0-0.8-0.2-1.3-0.7-1.5c-0.1,0-0.2-0.1-0.3-0.1c-0.4,0-0.8,0.2-1.2,0.6c-0.2,0.2-0.4,0.5-0.8,1s-0.7,1-0.9,1.6
				c-0.3,0.6-0.5,1.1-0.6,1.6c0,0.2-0.1,0.3-0.1,0.5c0,0.3,0.1,0.5,0.2,0.7c0.4,0.4,0.8,0.5,1.2,0.5c0.2,0,0.3,0,0.5-0.1
				c0.6-0.2,1.1-0.5,1.5-0.9l0.2,3.2L218.7,271.5C218.6,271.5,218.6,271.5,218.7,271.5L218.7,271.5L218.7,271.5z M218.2,266.5
				c-0.2,0-0.4,0.1-0.6,0.1c-0.2,0-0.4,0-0.5-0.1c-0.4-0.1-0.6-0.3-0.7-0.5c-0.1-0.1-0.1-0.2-0.1-0.2c0-0.1,0-0.2,0.1-0.3
				c0.1-0.2,0.3-0.4,0.6-0.5c0.1-0.1,0.3-0.2,0.5-0.2c0.1,0,0.2,0,0.3,0c0.3,0.1,0.4,0.3,0.5,0.7c0,0.2,0.1,0.4,0.1,0.6
				C218.2,266.3,218.2,266.4,218.2,266.5z"/>
			<path class="st3" d="M218.3,274.1c0.6-0.1,1.2-0.2,1.8-0.3c0.6-0.1,1.2-0.2,1.8-0.3l1.1-2.2c-1.1,0.2-2.3,0.4-3.6,0.7
				L218.3,274.1z"/>
			<path class="st3" d="M233.8,265.5C233.8,265.5,233.8,265.5,233.8,265.5c-0.5,0.2-0.9,0.4-1.3,0.6c-0.4,0.2-0.9,0.3-1.5,0.3
				c-0.3-0.2-0.6-0.5-0.8-0.9c-0.2-0.3-0.4-0.7-0.4-1.2c0.7,0.1,1.3,0.2,1.9,0.4l0.8-2.4c-0.3-0.1-0.6-0.1-0.9-0.2
				c-0.3-0.1-0.6-0.1-0.9-0.1h0c-0.4,0-0.8,0.2-1.1,0.6c-0.3,0.4-0.6,0.9-0.8,1.5s-0.3,1.1-0.3,1.7c0,0,0,0.1,0,0.1
				c0,0.5,0.1,1,0.3,1.3c-0.4,0.1-0.9,0.2-1.5,0.3c-0.4,0.1-1,0.1-1.6,0.2l-0.7-8.6l-1.2,2.2l0.7,9c1.3-0.3,2.7-0.6,4.1-0.9
				c1.4-0.3,2.8-0.9,4.1-1.6c0,0,0.1-0.2,0.2-0.4s0.2-0.5,0.4-0.8s0.2-0.5,0.3-0.7C233.8,265.7,233.8,265.6,233.8,265.5
				C233.8,265.6,233.8,265.5,233.8,265.5z"/>
			<path class="st3" d="M244.7,265.6l-0.3-6.2l-1.4,2.2c0.1,1.6,0.2,2.8,0.2,3.8s0.1,2,0.1,2.9c-0.6,0.2-1.1,0.4-1.6,0.5
				c-0.4,0.1-0.9,0.2-1.5,0.3l-0.6-8.7l-1.4,2.3l0.4,5.7c-0.4,0.2-0.9,0.4-1.6,0.5c-0.4,0.1-0.8,0.2-1.2,0.2c-0.2,0-0.5,0-0.7-0.1
				c-0.2-0.1-0.4-0.2-0.6-0.5c-0.1-0.2-0.1-0.4-0.1-0.5c0-0.1,0-0.2,0.1-0.3l0,0h0c0,0,0,0,0,0c-0.4,0.5-0.7,1.2-0.9,2
				c0,0.1,0,0.2-0.1,0.3c-0.2,0.1-0.3,0.1-0.5,0.2c-0.9,0.1-1.9,0.3-2.8,0.3c-1,0.1-1.9,0.2-2.8,0.4c-0.1,0-0.2,0.1-0.2,0.1
				c0,0,0,0.1,0.1,0.1c0.1,0.1,0.6,0.4,1.4,0.7s1.3,0.5,1.5,0.6c0.5,0.1,0.9,0.2,1.3,0.2c0.1,0,0.2,0,0.4,0c0.5-0.1,1-0.4,1.4-1
				c0.1-0.2,0.3-0.5,0.5-0.7c0.1,0.2,0.3,0.4,0.6,0.5c0.3,0.1,0.6,0.2,0.8,0.2c0.5,0,1.1-0.2,1.6-0.5c0.9-0.6,1.6-1.1,1.9-1.6l0.2,2
				l0,0.2l0,0.1v0c0,0,0.1,0,0.1,0v0l0,0c1.7-0.4,2.8-0.7,3.2-1c1.2-0.7,2.1-1.7,2.4-3.1c0.1-0.3,0.1-0.6,0.2-0.9
				S244.8,266,244.7,265.6z"/>
		</g>
	</g>
</g>
</svg>
