<?xml version="1.0" encoding="utf-8"?>
<!-- Generator: Adobe Illustrator 26.3.0, SVG Export Plug-In . SVG Version: 6.00 Build 0)  -->
<svg version="1.1" id="Layer_1" xmlns="http://www.w3.org/2000/svg" xmlns:xlink="http://www.w3.org/1999/xlink" x="0px" y="0px"
	 viewBox="0 0 311.81 311.81" style="enable-background:new 0 0 311.81 311.81;" xml:space="preserve">
<style type="text/css">
	.st0{fill:#1C1C1C;}
	.st1{fill:#0D7E49;}
	.st2{fill:none;stroke:#0D7E49;stroke-width:0.5;stroke-miterlimit:10;}
	.st3{fill:#0E2344;}
	.st4{fill:#FFFFFF;}
	.st5{fill:#9F8566;}
	.st6{fill:none;stroke:#9F8566;stroke-width:0.5;stroke-miterlimit:10;}
</style>
<g>
	<path class="st0" d="M209.05,122.14c-0.44,0.58-0.81,1.25-1.34,1.73c-3.3,2.98-4.61,6.66-4.6,11.11
		c0.08,27.28,0.03,54.55,0.06,81.83c0,2.66-0.66,5.07-2.32,7.11c-1.86,2.28-3.83,4.48-5.84,6.63c-4.57,4.89-9.18,9.74-13.81,14.58
		c-18.39,19.21-40.68,26.02-66.12,18.5c-25.3-7.48-40.18-25.28-45.26-51.17c-0.51-2.62-0.49-5.34-0.87-7.98
		c-0.1-0.7-0.62-1.53-1.2-1.95c-1.9-1.36-2.74-3.32-2.08-5.39c0.6-1.9,2.44-3.2,4.44-3.15c1.99,0.06,3.73,1.44,4.26,3.38
		c0.54,1.98-0.25,4.07-2.24,5.09c-1.07,0.55-1.18,1.21-1.15,2.21c0.84,29.22,24.06,55.1,53.02,59.1
		c16.77,2.32,32.19-1.21,45.83-11.24c5.92-4.36,11.01-9.76,15.37-15.77c1.45-2,2.02-4.11,2.01-6.56
		c-0.05-14.34-0.03-28.68-0.02-43.02c0-12.4,0.01-24.8,0.03-37.19c0.01-5,1.75-9.28,5.3-12.83c4.79-4.79,9.57-9.58,14.37-14.35
		c0.47-0.47,1.05-0.83,1.58-1.25C208.65,121.76,208.85,121.95,209.05,122.14z"/>
	<path class="st0" d="M241.41,72.71c-0.36,0.54-0.62,1.18-1.09,1.59c-3.58,3.14-4.87,7.08-4.85,11.81
		c0.1,27.19,0.01,70.47,0.08,97.67c0.01,4.3-1.44,7.9-4.32,10.89c-5.12,5.3-10.38,10.46-15.62,15.64c-0.37,0.36-1.07,0.39-1.62,0.57
		c0.21-0.5,0.28-1.16,0.65-1.47c4.03-3.41,5.12-7.79,5.09-12.93c-0.13-26.93-0.02-69.94-0.1-96.86c-0.01-4.39,1.57-7.99,4.51-11.01
		c5.04-5.18,10.2-10.26,15.33-15.36c0.41-0.41,0.96-0.67,1.45-1C241.09,72.4,241.25,72.56,241.41,72.71z"/>
	<path class="st0" d="M145.81,253.48c-0.22-0.77-0.54-1.27-0.41-1.61c0.17-0.46,0.66-0.82,1.04-1.2c3.5-3.51,6.92-7.11,10.52-10.51
		c3.04-2.86,4.32-6.22,4.3-10.38c-0.07-19.36,0.02-38.72-0.03-58.08c-0.01-5.68,1.85-10.42,5.95-14.39
		c4.72-4.57,9.29-9.28,13.96-13.89c0.4-0.4,1.06-0.53,1.61-0.78c-0.23,0.6-0.29,1.39-0.72,1.77c-3.64,3.21-4.91,7.21-4.88,12.01
		c0.12,20.03,0.03,40.06,0.08,60.09c0.01,3.04-0.82,5.68-2.73,7.98c-1.59,1.9-3.19,3.8-4.93,5.56
		c-7.21,7.28-14.48,14.51-21.73,21.75C147.34,252.31,146.74,252.72,145.81,253.48z"/>
	<path class="st0" d="M120.79,253.48c-0.22-0.77-0.54-1.27-0.41-1.61c0.17-0.46,0.66-0.82,1.04-1.2c3.5-3.51,6.92-7.11,10.52-10.51
		c3.04-2.86,4.32-6.22,4.3-10.38c-0.07-19.36,0.02-18.35-0.03-37.71c-0.01-5.68,1.85-10.42,5.95-14.39
		c4.72-4.57,9.29-9.28,13.96-13.89c0.4-0.4,1.06-0.53,1.61-0.78c-0.23,0.6-0.29,1.39-0.72,1.77c-3.64,3.21-4.91,7.21-4.88,12.01
		c0.12,20.03,0.03,19.69,0.08,39.72c0.01,3.04-0.82,5.68-2.73,7.98c-1.59,1.9-3.19,3.8-4.93,5.56
		c-7.21,7.28-14.48,14.51-21.73,21.75C122.32,252.31,121.72,252.72,120.79,253.48z"/>
	<path class="st0" d="M256.05,59.85c0,3.31,0.19,6.65-0.1,9.93c-0.11,1.24-1.14,2.56-2.07,3.55c-2.74,2.93-5.67,5.69-8.45,8.58
		c-0.69,0.72-1.12,1.68-1.47,2.77c7.23-2.04,15.31-1.81,20.44-8.54c1.15-1.51,1.96-3.29,2.8-4.73c-0.04-0.2,0.1,0.17,0.11,0.54
		c0.02,1.54-0.17,3.1,0.03,4.61c0.55,4.35-1.61,7.21-4.59,10.06c-6.92,6.61-13.6,13.46-20.25,20.34c-0.92,0.95-1.09,2.63-1.49,3.67
		c-1.68-7.58,0.37-14.02,7.95-18.26c-0.16-0.17-0.33-0.33-0.49-0.5c-1.67,0.37-3.33,0.74-5.07,1.12c-0.14-0.49-0.3-0.8-0.3-1.1
		c0-4.69-0.14-9.38,0.13-14.05c0.08-1.51,0.94-3.19,1.94-4.38c1.93-2.3,4.23-4.28,6.32-6.45C253.46,64.96,256.22,63.35,256.05,59.85
		z"/>
	<path class="st0" d="M131.99,180.7c-0.52,0.18-1.13,0.32-1.49,0.68c-5.47,5.42-10.89,10.89-16.36,16.31c-4.12,4.08-6.1,9-6.1,14.79
		c0.02,12.25,0.01,24.51,0.01,36.76c0,3.2-0.86,6.08-3.15,8.41c-0.04,0.04-0.08,0.08-0.12,0.13c-0.02-0.04-0.03-0.08-0.05-0.11
		c-1.74-3.32-4.56-8.52-6.42-11.78c-5.97-10.47-12.12-20.85-17.91-31.42c-3.48-6.35-5.43-7.84-5.37-15.22
		c0.11-13.27,0.18-149.85-0.04-163.12c-0.09-5.66,1.27-10.42,5.65-14.17c0.41-0.35,0.43-1.17,0.63-1.78
		c-0.56,0.23-1.26,0.32-1.66,0.71c-5.86,5.8-11.75,11.57-17.47,17.5c-3.21,3.33-4.87,7.32-4.85,12.15
		c0.09,30.82,0.04,179.6,0.06,210.43c0,4.25-1.35,7.87-4.43,10.82c-0.63,0.6-1.27,1.2-1.81,1.88c-0.19,0.24-0.07,0.72-0.09,1.09
		c0.36,0,0.81,0.13,1.08-0.03c0.45-0.26,0.8-0.7,1.18-1.08c4.74-4.74,9.42-9.53,14.23-14.2c3.25-3.15,6.14-6.49,7.24-10.77
		c3.79,6.9,11.6,16.35,15.7,23.66c-0.21,0.21-0.42,0.42-0.62,0.64c-0.37,0.38-0.37,1.11-0.54,1.68c0.61-0.06,1.27,0,1.82-0.22
		c0.46-0.19,0.8-0.69,1.17-1.07c7.91-7.91,15.84-15.79,23.71-23.74c2.35-2.38,4.56-4.9,6.74-7.43c2.22-2.59,3.17-5.61,3.14-9.07
		c-0.09-12.19,0.11-24.38-0.1-36.56c-0.09-5.58,1.27-10.29,5.62-13.96c0.39-0.33,0.68-0.79,1.05-1.24
		C132.26,181.08,132.05,180.67,131.99,180.7z"/>
	<path class="st0" d="M58.68,277.33c4.83-4.82,9.79-9.76,14.66-14.63c4.86,4.86,9.81,9.82,14.64,14.66
		c-4.87,4.86-9.82,9.81-14.65,14.63C68.56,287.22,63.61,282.27,58.68,277.33z"/>
	<g>
		<g>
			
				<rect x="167.92" y="115.56" transform="matrix(0.8049 -0.5934 0.5934 0.8049 -39.5023 129.5196)" class="st0" width="18.64" height="18.56"/>
			
				<rect x="150.07" y="128.72" transform="matrix(0.8049 -0.5934 0.5934 0.8049 -50.7929 121.4936)" class="st0" width="18.64" height="18.56"/>
			
				<rect x="131.91" y="142.11" transform="matrix(0.8049 -0.5934 0.5934 0.8049 -62.2765 113.3305)" class="st0" width="18.64" height="18.56"/>
		</g>
	</g>
	<g>
		<g>
			<g>
				<path class="st0" d="M243.37,62.74c-0.6-0.19-1.19-0.46-1.81-0.56c-7.2-1.22-14.4-2.5-21.62-3.59
					c-4.16-0.63-7.97,0.17-11.56,2.76c-19.9,14.33-70.47,50.31-90.41,64.6c-0.68,0.49-1.34,0.83-2.02,1.05l-6.46,4.61
					c6.18,1.82,12.52,3.18,18.88,4.38c0.41,0.08,0.81,0.17,1.22,0.25c0.13,0.03,0.27,0.06,0.41,0.1c0.29,0.07,0.6,0.15,0.87,0.12
					c0.18-0.02,0.27-0.11,0.42-0.21c0.27-0.19,0.54-0.38,0.81-0.58c0.74-0.52,1.47-1.05,2.21-1.58c0.97-0.69,1.94-1.39,2.92-2.08
					c1.17-0.84,2.35-1.68,3.52-2.52c1.34-0.96,2.69-1.92,4.03-2.88c1.48-1.06,2.96-2.12,4.44-3.17c1.58-1.13,3.16-2.26,4.75-3.4
					c1.65-1.18,3.3-2.36,4.95-3.55c1.69-1.21,3.38-2.42,5.06-3.63c1.69-1.21,33.93-24.23,35.62-25.44c1.66-1.19,3.32-2.38,4.99-3.57
					c1.6-1.15,3.2-2.29,4.8-3.44c1.5-1.08,3.01-2.16,4.51-3.23c1.37-0.99,2.75-1.97,4.12-2.96c1.21-0.87,2.42-1.74,3.64-2.61
					c1.02-0.73,2.03-1.46,3.05-2.19c0.79-0.57,1.58-1.14,2.37-1.71c0.53-0.38,1.05-0.76,1.58-1.15c0.08-0.06,0.16-0.11,0.23-0.17
					c3.76-2.75,7.67-3.95,12.24-2.9c0.69,0.16,1.44,0.02,2.16,0.02C243.31,63.26,243.34,63,243.37,62.74z"/>
			</g>
			<g>
				<path class="st0" d="M112.83,129.23c-0.43,0.06-0.87,0.05-1.38-0.05c-16.16-3.21-27.66-16.01-30.37-31.15
					c-3.68-20.6,10.46-40.22,30.3-44.22c18.56-3.74,36.26,6.75,42.84,22.48c0.28,0.67,0.41,1.21,0,1.95
					c-0.71,1.27-0.06,2.86,1.25,3.5c1.26,0.62,2.79,0.16,3.52-1.05c0.75-1.24,0.41-2.93-0.88-3.61c-0.81-0.43-1.2-1.04-1.52-1.81
					c-2.05-5.02-5.02-9.45-8.98-13.12c-12.65-11.71-27.16-14.65-43.41-8.88c-4.52,1.61-8.6,4.01-12.12,7.26
					c-11.81,10.92-16.57,24.28-13.02,40.08c2.88,12.79,10.47,22.2,22.33,27.92c2.62,1.26,5.33,2.25,8.09,3.08L112.83,129.23z"/>
			</g>
		</g>
	</g>
	<g>
		<g>
			<path class="st1" d="M170.25,69.83c0.8,0.13,1.53-0.03,2.16-0.5c0.64-0.46,1.02-1.09,1.15-1.89c0.13-0.79-0.05-1.53-0.55-2.21
				c-0.48-0.65-1.1-1.04-1.86-1.17c-0.76-0.13-1.46,0.04-2.1,0.51c-0.65,0.47-1.05,1.12-1.18,1.94c-0.14,0.82,0.02,1.55,0.48,2.18
				C168.81,69.32,169.44,69.7,170.25,69.83z"/>
			<path class="st1" d="M182.18,43.85c0.69-0.5,1.1-1.18,1.24-2.02c0.14-0.85-0.06-1.63-0.59-2.36c-0.52-0.71-1.19-1.13-2-1.27
				c-0.82-0.13-1.56,0.05-2.24,0.54c-0.7,0.51-1.13,1.21-1.28,2.09c-0.15,0.88,0.02,1.66,0.52,2.34s1.17,1.08,2.04,1.22
				C180.74,44.52,181.51,44.35,182.18,43.85z"/>
			<path class="st1" d="M192.85,34.41l0.56-0.41c0.49-0.36,0.97-0.52,1.45-0.49c0.35,0,0.72,0.17,1.13,0.49
				c0.31,0.21,0.9,0.92,1.79,2.14l9.52,13.04c0.9,1.24,1.42,2.04,1.55,2.42c0.13,0.38,0.15,0.73,0.04,1.05
				c-0.1,0.32-0.48,0.68-1.14,1.09l-6.98,5.1c0.17-0.84,0.25-1.85,0.24-3.07c-0.02-2.33-0.86-4.64-2.51-6.91
				c-2.03-2.78-4.45-4.4-7.28-4.86c-2.82-0.46-5.33,0.11-7.52,1.7c-1.83,1.33-2.91,3.18-3.24,5.54c-0.33,2.36,0.44,4.94,2.33,7.74
				l9.88-7.21c1.5,2.29,2.14,4.5,1.93,6.62c-0.27,2.47-1.47,5.03-3.61,7.69l-11.28,8.2c0.05-0.13,0.13-0.25,0.18-0.38
				c0.54-1.56,0.63-2.9,0.24-4.01c-0.38-1.11-1.32-2.69-2.81-4.74l-4.82-6.61c-0.52-0.71-0.82-1.25-0.89-1.62
				c-0.14-0.5-0.1-0.98,0.1-1.42c0.2-0.45,0.56-0.86,1.07-1.23l0.38-0.27l-0.35-0.48l-6.34,4.62l0.35,0.48
				c0.74-0.54,1.38-0.86,1.93-0.97c0.35-0.05,0.73,0.02,1.15,0.23c0.42,0.2,0.91,0.7,1.48,1.48l5.17,7.09
				c1.35,1.85,2.12,3.28,2.32,4.28c0.19,1,0.1,1.96-0.29,2.9c-0.38,0.93-1.07,1.77-2.07,2.5c-0.86,0.63-1.7,0.98-2.52,1.06
				c-0.82,0.08-1.53-0.05-2.14-0.38c-0.61-0.33-1.49-1.27-2.62-2.82l-6.21-8.52c-0.73-1-1.13-1.66-1.2-2
				c-0.07-0.33-0.02-0.66,0.14-0.99c0.16-0.33,0.6-0.75,1.31-1.27l0.47-0.34l-0.35-0.48l-9.45,6.9l0.35,0.48
				c0.77-0.58,1.35-0.9,1.74-0.97c0.39-0.07,0.74-0.02,1.03,0.13c0.3,0.16,0.81,0.74,1.55,1.75l6.21,8.52
				c1.06,1.45,2.14,2.42,3.25,2.92c1.11,0.5,2.45,0.59,4.03,0.28c1.16-0.23,2.53-0.92,4.12-2.07c0.71-0.52,1.29-1.05,1.82-1.6
				l0.1,0.12l27.85-20.35l-0.01-0.02l10.82-7.9l-0.64-0.87c-0.92,0.71-1.55,1.08-1.88,1.13c-0.33-0.01-0.7-0.18-1.11-0.5
				c-0.31-0.21-0.91-0.92-1.79-2.14l-9.52-13.04c-0.9-1.24-1.42-2.04-1.55-2.42c-0.13-0.38-0.14-0.78-0.03-1.22
				c0.11-0.44,0.4-0.83,0.88-1.17l0.56-0.41l-0.48-0.66l-8.87,6.47L192.85,34.41z M186.66,54.32c-1.4-1.91-2.24-3.31-2.54-4.18
				c-0.29-0.88-0.34-1.67-0.13-2.39c0.12-0.41,0.4-0.79,0.85-1.11c0.66-0.48,1.43-0.58,2.29-0.28c1.53,0.5,2.97,1.67,4.32,3.51
				l0.46,0.62L186.66,54.32z"/>
			<path class="st1" d="M210.76,23.31c-0.18-0.49-0.23-0.89-0.14-1.21c0.12-0.47,0.41-0.88,0.89-1.22l0.54-0.4l-0.48-0.66
				l-8.63,6.29l0.48,0.66l0.54-0.4c0.46-0.34,0.92-0.49,1.36-0.46c0.44,0.03,0.82,0.17,1.13,0.41c0.31,0.25,0.92,0.98,1.82,2.22
				l9.52,13.04c0.88,1.21,1.39,1.99,1.51,2.34c0.18,0.49,0.23,0.89,0.14,1.21c-0.12,0.47-0.41,0.88-0.89,1.22l-0.54,0.4l0.48,0.66
				l8.63-6.29l-0.48-0.66l-0.54,0.4c-0.46,0.34-0.92,0.49-1.36,0.46c-0.44-0.03-0.83-0.17-1.14-0.41s-0.93-0.98-1.83-2.21
				l-9.52-13.04C211.36,24.45,210.86,23.67,210.76,23.31z"/>
		</g>
	</g>
	<g>
		<polyline class="st2" points="54.46,277.34 44.4,277.34 44.4,41.3 53.65,41.3 		"/>
		<polyline class="st2" points="249.47,107.7 249.47,277.34 92.54,277.34 		"/>
		<polyline class="st2" points="232.51,41.3 249.47,41.3 249.47,60.41 		"/>
		<line class="st2" x1="80.6" y1="41.3" x2="172.16" y2="41.3"/>
	</g>
	<g>
		<g>
			<path class="st1" d="M173.39,265.55c0.13,0.42,0.24,0.84,0.34,1.28c0.08,0.39,0.13,0.81,0.13,1.26v0.16
				c-0.59,0.54-1.33,0.99-2.23,1.33c-0.57,0.22-1.18,0.33-1.83,0.33c-0.37,0-0.75-0.04-1.15-0.11c-0.65-0.28-0.97-0.68-0.97-1.21
				c0-0.19,0.04-0.4,0.13-0.62c0.31-0.84,0.64-1.6,0.98-2.27l0.05-0.12l1.38,0.92c0.2-0.35,0.4-0.7,0.6-1.05
				c0.2-0.35,0.4-0.71,0.6-1.08l-1.46-0.98l-0.03-0.02l-0.28-0.15c-0.16,0.28-0.33,0.58-0.51,0.89s-0.34,0.6-0.48,0.87
				c-1.09,1.99-1.63,3.56-1.63,4.72c0,0.1,0,0.19,0.01,0.29c0.1,1.18,0.52,1.95,1.26,2.31c0.36,0.18,0.75,0.26,1.17,0.26
				c0.45,0,0.95-0.1,1.48-0.29c1.03-0.38,1.89-1.06,2.57-2.04c0.69-1.01,1.15-2.14,1.38-3.39c0.07-0.36,0.1-0.71,0.1-1.07
				c0-0.87-0.2-1.71-0.59-2.53L173.39,265.55z"/>
			<path class="st1" d="M178.06,258.93l-1.2,2.23l0.64,9.1l1.23-2.07c-0.07-0.99-0.18-5.5-0.31-6.42
				C178.29,260.83,178.17,259.89,178.06,258.93z"/>
			<path class="st1" d="M193.84,267.65c-0.01,0-0.01,0-0.03,0.01c-0.45,0.17-0.87,0.36-1.28,0.57c-0.41,0.21-0.9,0.33-1.47,0.34
				c-0.3-0.25-0.56-0.55-0.78-0.89c-0.23-0.34-0.38-0.74-0.45-1.19c0.67,0.06,1.32,0.19,1.95,0.38l0.78-2.4
				c-0.31-0.07-0.6-0.14-0.89-0.21c-0.28-0.07-0.59-0.11-0.91-0.12h-0.02c-0.39,0-0.75,0.2-1.07,0.59c-0.33,0.4-0.59,0.89-0.78,1.45
				s-0.29,1.13-0.3,1.72c-0.01,0.04-0.01,0.07-0.01,0.11c0,0.54,0.11,0.97,0.33,1.31c-0.39,0.11-0.88,0.21-1.48,0.3
				c-0.38,0.06-0.83,0.13-1.35,0.2l-0.26-7.59c0-0.07-0.05-0.12-0.15-0.14c-0.05-0.01-0.09-0.01-0.13-0.01
				c-0.05,0-0.09,0.01-0.13,0.03c-0.32,0.16-0.61,0.39-0.86,0.67s-0.46,0.58-0.61,0.89c-0.52,1.06-0.97,1.96-1.33,2.72
				c-0.37,0.76-1.05,1.42-2.04,1.98c-0.35,0.2-0.71,0.39-1.09,0.57c-0.37,0.18-0.75,0.35-1.13,0.51l-0.4,0.2l-3.99,1.74
				c-0.4,0.16-0.82,0.32-1.26,0.48c-0.44,0.16-0.85,0.33-1.23,0.51c-0.06,0.05-0.09,0.09-0.09,0.12c0,0.04,0.06,0.06,0.18,0.06
				c0.02,0,0.05,0,0.07-0.01c0.27-0.01,0.46-0.02,0.57-0.03c1.07-0.02,2.13-0.07,3.17-0.15c1.04-0.08,1.97-0.28,2.79-0.6
				c1.45-0.55,2.66-1.4,3.61-2.56c0.6-0.74,1.02-1.48,1.28-2.23s0.64-1.53,1.15-2.34c0.07-0.11,0.13-0.17,0.18-0.17
				c0.02,0,0.05,0.01,0.06,0.02c0.07,0.06,0.11,0.12,0.11,0.19l0.33,6.73l-0.17,0.96c0.07-0.01,0.14-0.03,0.21-0.05l0.01,0.24
				l0.19-0.29c1.17-0.25,2.39-0.52,3.68-0.82c1.44-0.33,2.82-0.86,4.13-1.56c0.01-0.04,0.08-0.18,0.2-0.43s0.25-0.51,0.37-0.79
				c0.12-0.28,0.22-0.52,0.29-0.74c0.04-0.1,0.05-0.17,0.05-0.22C193.88,267.67,193.87,267.65,193.84,267.65z"/>
			<path class="st1" d="M198.95,271.28c0.19-0.08,0.32-0.2,0.4-0.37l0.4-0.84c-0.22,0.1-0.38,0.18-0.48,0.26
				c-0.25,0.19-0.62,0.61-1.13,1.27c-0.27,0.34-0.4,0.63-0.4,0.86c0,0.22,0.11,0.39,0.34,0.51c0.1,0.06,0.22,0.12,0.35,0.18
				s0.25,0.12,0.36,0.18c0.02,0.02,0.04,0.04,0.04,0.05c0,0.04-0.04,0.09-0.13,0.14c-0.27,0.15-0.56,0.29-0.85,0.42
				c-0.3,0.13-0.59,0.25-0.87,0.38c0.33-0.05,0.66-0.11,0.97-0.15c0.32-0.05,0.62-0.18,0.91-0.39c0.34-0.24,0.58-0.53,0.71-0.86
				c0.05-0.11,0.07-0.22,0.07-0.33c0-0.18-0.08-0.32-0.24-0.43c-0.14-0.09-0.31-0.16-0.5-0.21c-0.19-0.05-0.33-0.14-0.44-0.26
				C198.6,271.5,198.76,271.36,198.95,271.28z"/>
			<path class="st1" d="M196.31,259.18l-1.2,2.23l0.64,7.91l1.23-2.07c-0.07-0.99-0.18-4.31-0.31-5.24
				C196.54,261.09,196.41,260.14,196.31,259.18z"/>
			<path class="st1" d="M201.26,261.45c-0.16,0.39-0.34,0.76-0.52,1.12s-0.37,0.73-0.54,1.11c0.1,0.53,0.18,1.07,0.26,1.62
				c0.08,0.55,0.15,1.09,0.23,1.62v0.01c0,0.07-0.09,0.18-0.26,0.33c-0.53,0.47-1.13,0.88-1.78,1.22c-0.66,0.34-1.33,0.67-2.03,0.97
				c-0.05,0.03-0.19,0.1-0.4,0.2l-3.99,1.74c-0.4,0.16-0.82,0.32-1.26,0.48c-0.44,0.16-0.85,0.33-1.23,0.51
				c-0.06,0.05-0.09,0.09-0.09,0.12c0,0.04,0.06,0.06,0.18,0.06c0.02,0,0.05,0,0.07-0.01c0.27-0.01,0.46-0.02,0.57-0.03
				c1.07-0.02,2.13-0.07,3.17-0.15c1.04-0.08,1.97-0.28,2.79-0.6c1.59-0.6,2.88-1.56,3.86-2.88c0.98-1.32,1.49-2.84,1.54-4.58
				c-0.07-0.51-0.15-1-0.25-1.47C201.49,262.38,201.38,261.91,201.26,261.45z"/>
			<polygon class="st1" points="204.02,259.06 202.65,261.24 203.18,270.69 204.54,268.51 			"/>
			<path class="st1" d="M208.54,263.9c-0.07-0.02-0.13-0.04-0.19-0.04c-0.13,0-0.24,0.05-0.33,0.16c-0.3,0.33-0.54,0.71-0.72,1.14
				c-0.19,0.43-0.38,0.84-0.59,1.24c-0.11,0.22-0.17,0.43-0.17,0.61c0,0.2,0.07,0.37,0.21,0.52c0.16,0.18,0.41,0.28,0.75,0.31
				c0.09,0.01,0.18,0.02,0.27,0.02c0.24,0,0.47-0.03,0.69-0.08c0.07,0.1,0.12,0.22,0.15,0.37c0.01,0.06,0.02,0.11,0.02,0.16
				c0,0.07-0.01,0.12-0.05,0.16c-0.39,0.44-0.86,0.77-1.41,0.99c-1.07,0.43-2.14,0.86-3.22,1.27c-1.08,0.41-2.1,0.89-3.06,1.42
				c-0.05,0.04-0.08,0.09-0.08,0.15c0,0.07,0.03,0.11,0.1,0.11c0.68,0.07,1.37,0.12,2.07,0.14c0.13,0.01,0.25,0.01,0.37,0.01
				c0.58,0,1.15-0.05,1.71-0.15c0.83-0.16,1.62-0.57,2.36-1.22c0.74-0.65,1.33-1.39,1.76-2.23c0.44-0.84,0.67-1.69,0.7-2.57v-0.12
				c0-0.82-0.29-1.52-0.86-2.11C208.91,264.07,208.75,263.98,208.54,263.9z"/>
			<path class="st1" d="M218.59,261.25l1.11-2.21c-1.09,0.21-2.27,0.43-3.57,0.66l-1.1,2.21c0.59-0.11,1.18-0.22,1.77-0.33
				C217.4,261.47,217.99,261.36,218.59,261.25z"/>
			<path class="st1" d="M218.68,271.46c0.71-0.07,1.33-0.18,1.84-0.33c0.53-0.15,0.99-0.41,1.39-0.76c0.45-0.39,0.86-0.89,1.23-1.5
				s0.56-1.33,0.57-2.18c0.01-0.84-0.13-1.68-0.43-2.51l-1.42,2.1c0.31,1.08,0.47,1.75,0.48,2c-0.34,0.24-0.74,0.41-1.18,0.52
				c-0.28,0.07-0.67,0.14-1.16,0.22l0.06-0.11l-0.33-4.89c-0.01-0.81-0.24-1.3-0.7-1.48c-0.11-0.04-0.22-0.06-0.34-0.06
				c-0.37,0-0.79,0.21-1.25,0.64c-0.17,0.16-0.42,0.48-0.76,0.96s-0.66,1.01-0.95,1.57c-0.29,0.57-0.5,1.11-0.62,1.64
				c-0.04,0.18-0.06,0.33-0.06,0.48c0,0.28,0.08,0.51,0.25,0.67c0.37,0.35,0.76,0.52,1.19,0.52c0.16,0,0.32-0.02,0.48-0.07
				c0.6-0.18,1.09-0.49,1.48-0.94l0.22,3.25l-0.05,0.26C218.63,271.46,218.65,271.46,218.68,271.46L218.68,271.46L218.68,271.46z
				 M218.17,266.5c-0.2,0.05-0.4,0.08-0.59,0.08c-0.18,0-0.36-0.02-0.53-0.07c-0.36-0.1-0.61-0.29-0.74-0.55
				c-0.05-0.09-0.08-0.18-0.08-0.25c0-0.09,0.03-0.18,0.1-0.26c0.14-0.18,0.33-0.36,0.56-0.54c0.14-0.12,0.31-0.18,0.49-0.18
				c0.1,0,0.2,0.02,0.31,0.05c0.27,0.09,0.42,0.33,0.47,0.72c0.03,0.23,0.05,0.44,0.05,0.62
				C218.19,266.26,218.18,266.39,218.17,266.5z"/>
			<path class="st1" d="M218.29,274.13c0.59-0.11,1.18-0.22,1.77-0.33c0.59-0.11,1.19-0.22,1.78-0.33l1.11-2.21
				c-1.09,0.21-2.27,0.43-3.57,0.66L218.29,274.13z"/>
			<path class="st1" d="M233.78,265.54c-0.01,0-0.01,0-0.03,0.01c-0.45,0.17-0.87,0.36-1.28,0.57c-0.41,0.21-0.9,0.33-1.47,0.34
				c-0.3-0.25-0.56-0.55-0.78-0.89c-0.23-0.34-0.38-0.74-0.45-1.19c0.67,0.06,1.32,0.19,1.95,0.38l0.78-2.4
				c-0.31-0.07-0.6-0.14-0.89-0.21c-0.28-0.07-0.59-0.11-0.91-0.12h-0.02c-0.39,0-0.75,0.2-1.07,0.59c-0.33,0.4-0.59,0.89-0.78,1.45
				c-0.19,0.56-0.29,1.13-0.3,1.72c-0.01,0.04-0.01,0.07-0.01,0.11c0,0.54,0.11,0.97,0.33,1.31c-0.39,0.11-0.88,0.21-1.48,0.3
				c-0.44,0.07-0.96,0.15-1.57,0.23l-0.68-8.65l-1.17,2.17l0.72,8.98c1.29-0.27,2.66-0.57,4.1-0.91c1.44-0.33,2.82-0.86,4.13-1.56
				c0.01-0.04,0.08-0.18,0.2-0.43c0.12-0.25,0.25-0.51,0.37-0.79c0.12-0.28,0.22-0.52,0.29-0.74c0.04-0.1,0.05-0.17,0.05-0.22
				C233.83,265.56,233.81,265.54,233.78,265.54z"/>
			<path class="st1" d="M244.74,265.58l-0.33-6.18l-1.37,2.18c0.08,1.56,0.16,2.83,0.22,3.82s0.1,1.96,0.1,2.9
				c-0.56,0.24-1.1,0.42-1.64,0.54c-0.37,0.08-0.87,0.18-1.49,0.28l-0.57-8.69l-1.38,2.26l0.42,5.68c-0.37,0.19-0.92,0.37-1.65,0.55
				c-0.43,0.11-0.82,0.17-1.17,0.17c-0.24,0-0.46-0.03-0.66-0.08c-0.25-0.07-0.44-0.25-0.55-0.54c-0.07-0.18-0.11-0.35-0.11-0.53
				c0-0.11,0.01-0.23,0.05-0.34l-0.02,0.02h-0.01c0-0.01,0-0.01,0.01-0.02c-0.41,0.51-0.71,1.19-0.9,2.03
				c-0.02,0.1-0.04,0.2-0.05,0.29c-0.16,0.08-0.32,0.13-0.49,0.16c-0.92,0.15-1.86,0.26-2.82,0.32c-0.97,0.06-1.89,0.2-2.76,0.42
				c-0.12,0.03-0.18,0.08-0.18,0.14c0,0.03,0.02,0.06,0.05,0.1c0.14,0.14,0.61,0.37,1.39,0.7s1.27,0.52,1.47,0.58
				c0.47,0.14,0.9,0.22,1.29,0.22c0.13,0,0.25-0.01,0.36-0.02c0.53-0.08,0.99-0.42,1.38-1.01c0.14-0.23,0.3-0.45,0.46-0.67
				c0.12,0.21,0.31,0.38,0.56,0.5c0.27,0.13,0.55,0.19,0.84,0.19c0.5,0,1.05-0.18,1.64-0.55c0.94-0.59,1.58-1.13,1.93-1.65
				l0.16,2.05l-0.03,0.19l-0.03,0.06v0.01c0.03-0.01,0.05-0.01,0.08-0.02l0,0.02l0.02-0.02c1.69-0.42,2.75-0.74,3.17-0.96
				c1.25-0.66,2.05-1.7,2.4-3.1c0.07-0.26,0.13-0.56,0.17-0.9S244.76,265.97,244.74,265.58z"/>
		</g>
	</g>
</g>
</svg>
